<svg width="61" height="17" viewBox="0 0 61 17" fill="none" xmlns="http://www.w3.org/2000/svg">
<path d="M10.512 16.32H-5.00679e-06V0.240007H2.08799V14.472H10.512V16.32ZM18.1286 16.56C13.4966 16.56 10.3526 12.936 10.3526 8.25601C10.3526 3.62401 13.4966 7.15256e-06 18.1286 7.15256e-06C22.7846 7.15256e-06 25.9046 3.62401 25.9046 8.25601C25.9046 12.936 22.7846 16.56 18.1286 16.56ZM18.1526 14.568C21.8246 14.568 23.7446 11.952 23.7446 8.25601C23.7446 4.60801 21.8246 1.96801 18.1526 1.96801C14.4806 1.96801 12.5606 4.60801 12.5606 8.25601C12.5606 11.952 14.4806 14.568 18.1526 14.568ZM34.5614 16.512C30.2654 16.512 27.9854 13.128 27.9854 8.25601C27.9854 3.55201 30.6254 7.15256e-06 35.4734 7.15256e-06C38.8334 7.15256e-06 41.2574 1.70401 42.3374 4.75201L40.4654 5.97601C39.9134 3.69601 38.3294 1.96801 35.4974 1.96801C31.8494 1.96801 30.1934 4.58401 30.1934 8.25601C30.1934 11.928 31.8014 14.544 35.2814 14.544C38.3774 14.544 39.6014 12.816 40.2014 10.104H35.2814V8.25601H42.3854V16.32H41.0894L40.4414 10.104C40.3214 13.68 38.2574 16.512 34.5614 16.512ZM52.2926 16.56C47.6606 16.56 44.5166 12.936 44.5166 8.25601C44.5166 3.62401 47.6606 7.15256e-06 52.2926 7.15256e-06C56.9486 7.15256e-06 60.0686 3.62401 60.0686 8.25601C60.0686 12.936 56.9486 16.56 52.2926 16.56ZM52.3166 14.568C55.9886 14.568 57.9086 11.952 57.9086 8.25601C57.9086 4.60801 55.9886 1.96801 52.3166 1.96801C48.6446 1.96801 46.7246 4.60801 46.7246 8.25601C46.7246 11.952 48.6446 14.568 52.3166 14.568Z" fill="black"/>
</svg>
